#Comment line ignore any data following # character 
#Hierarchical Translation and Rotation (.htr) file 
[Header]	
#Header keywords are followed by a single value 
FileType HTR		#Single word string
DataType HTRS		#Translation followed by rotation and scale data
FileVersion 1		#integer
NumSegments 84		#integer
NumFrames 2		#integer
DataFrameRate 30		#integer, data frame rate in this file
EulerRotationOrder ZYX
CalibrationUnits mm
RotationUnits Degrees
GlobalAxisofGravity Y
BoneLengthAxis Y
ScaleFactor 1.00
[SegmentNames&Hierarchy]
#CHILD	PARENT
MASTER GLOBAL
root MASTER
chest root
L_mid_tent01 root
R_mid_tent01 root
spine01 root
Bip01_Neck chest
L_humerus chest
R_humerus chest
weapon_bone chest
Bip01_Head Bip01_Neck
eye_left_bone Bip01_Head
eye_right_bone Bip01_Head
L_forearm L_humerus
L_front_hand L_forearm
L_weapon_bone L_forearm
L_front_hand01_01 L_front_hand
L_front_hand02_01 L_front_hand
L_front_hand03_01 L_front_hand
L_front_hand01_02 L_front_hand01_01
L_front_hand02_02 L_front_hand02_01
L_front_hand03_02 L_front_hand03_01
R_forearm R_humerus
R_front_hand R_forearm
R_weapon_bone R_forearm
R_front_hand01_01 R_front_hand
R_front_hand02_01 R_front_hand
R_front_hand03_01 R_front_hand
R_front_hand01_02 R_front_hand01_01
R_front_hand02_02 R_front_hand02_01
R_front_hand03_02 R_front_hand03_01
null_rope01_connect L_mid_tent01
Rope1_Seg01 null_rope01_connect
Rope1_Seg02 Rope1_Seg01
Rope1_Seg03 Rope1_Seg02
Rope1_Seg04 Rope1_Seg03
Rope1_Seg05 Rope1_Seg04
Rope1_Seg06 Rope1_Seg05
Rope1_Seg07 Rope1_Seg06
Rope1_Seg09 Rope1_Seg07
L_mid_hand01 Rope1_Seg09
L_mid_hand02 Rope1_Seg09
L_mid_hand03 Rope1_Seg09
null_rope02_connect R_mid_tent01
Rope2_Seg01 null_rope02_connect
Rope2_Seg02 Rope2_Seg01
Rope2_Seg03 Rope2_Seg02
Rope2_Seg04 Rope2_Seg03
Rope2_Seg05 Rope2_Seg04
Rope2_Seg06 Rope2_Seg05
Rope2_Seg07 Rope2_Seg06
Rope2_Seg09 Rope2_Seg07
R_mid_hand01 Rope2_Seg09
R_mid_hand02 Rope2_Seg09
R_mid_hand03 Rope2_Seg09
spine02 spine01
spine03 spine02
pelvis spine03
null_rope03_connect pelvis
null_rope04_connect pelvis
Rope3_Seg01 null_rope03_connect
Rope3_Seg02 Rope3_Seg01
Rope3_Seg03 Rope3_Seg02
Rope3_Seg04 Rope3_Seg03
Rope3_Seg05 Rope3_Seg04
Rope3_Seg06 Rope3_Seg05
Rope3_Seg07 Rope3_Seg06
Rope3_Seg08 Rope3_Seg07
Rope3_Seg09 Rope3_Seg08
R_rear_hand01 Rope3_Seg09
R_rear_hand02 Rope3_Seg09
R_rear_hand03 Rope3_Seg09
Rope4_Seg01 null_rope04_connect
Rope4_Seg02 Rope4_Seg01
Rope4_Seg03 Rope4_Seg02
Rope4_Seg04 Rope4_Seg03
Rope4_Seg05 Rope4_Seg04
Rope4_Seg06 Rope4_Seg05
Rope4_Seg07 Rope4_Seg06
Rope4_Seg08 Rope4_Seg07
Rope4_Seg09 Rope4_Seg08
L_rear_hand01 Rope4_Seg09
L_rear_hand02 Rope4_Seg09
L_rear_hand03 Rope4_Seg09
[BasePosition]
#SegmentName Tx, Ty, Tz, Rx, Ry, Rz, BoneLength
MASTER 0.000000 0.000000 0.000000 -90.000000 0.000000 0.000000 10.000000 
root 0.000000 0.000000 0.000000 0.000000 0.000000 0.000000 10.000000 
chest 0.000000 0.000000 0.000000 0.000000 0.000000 0.000000 10.000000 
L_mid_tent01 0.000000 0.000000 0.000000 0.000000 0.000000 0.000000 10.000000 
R_mid_tent01 0.000000 0.000000 0.000000 0.000000 0.000000 0.000000 10.000000 
spine01 0.000000 0.000000 0.000000 0.000000 0.000000 0.000000 10.000000 
Bip01_Neck 0.000000 0.000000 0.000000 0.000000 0.000000 0.000000 10.000000 
L_humerus 0.000000 0.000000 0.000000 0.000000 0.000000 0.000000 10.000000 
R_humerus 0.000000 0.000000 0.000000 0.000000 0.000000 0.000000 10.000000 
weapon_bone 0.000000 0.000000 0.000000 0.000000 0.000000 0.000000 10.000000 
Bip01_Head 0.000000 0.000000 0.000000 0.000000 0.000000 0.000000 10.000000 
eye_left_bone 0.000000 0.000000 0.000000 0.000000 0.000000 0.000000 10.000000 
eye_right_bone 0.000000 0.000000 0.000000 0.000000 0.000000 0.000000 10.000000 
L_forearm 0.000000 0.000000 0.000000 0.000000 0.000000 0.000000 10.000000 
L_front_hand 0.000000 0.000000 0.000000 0.000000 0.000000 0.000000 10.000000 
L_weapon_bone 0.000000 0.000000 0.000000 0.000000 0.000000 0.000000 10.000000 
L_front_hand01_01 0.000000 0.000000 0.000000 0.000000 0.000000 0.000000 10.000000 
L_front_hand02_01 0.000000 0.000000 0.000000 0.000000 0.000000 0.000000 10.000000 
L_front_hand03_01 0.000000 0.000000 0.000000 0.000000 0.000000 0.000000 10.000000 
L_front_hand01_02 0.000000 0.000000 0.000000 0.000000 0.000000 0.000000 10.000000 
L_front_hand02_02 0.000000 0.000000 0.000000 0.000000 0.000000 0.000000 10.000000 
L_front_hand03_02 0.000000 0.000000 0.000000 0.000000 0.000000 0.000000 10.000000 
R_forearm 0.000000 0.000000 0.000000 0.000000 0.000000 0.000000 10.000000 
R_front_hand 0.000000 0.000000 0.000000 0.000000 0.000000 0.000000 10.000000 
R_weapon_bone 0.000000 0.000000 0.000000 0.000000 0.000000 0.000000 10.000000 
R_front_hand01_01 0.000000 0.000000 0.000000 0.000000 0.000000 0.000000 10.000000 
R_front_hand02_01 0.000000 0.000000 0.000000 0.000000 0.000000 0.000000 10.000000 
R_front_hand03_01 0.000000 0.000000 0.000000 0.000000 0.000000 0.000000 10.000000 
R_front_hand01_02 0.000000 0.000000 0.000000 0.000000 0.000000 0.000000 10.000000 
R_front_hand02_02 0.000000 0.000000 0.000000 0.000000 0.000000 0.000000 10.000000 
R_front_hand03_02 0.000000 0.000000 0.000000 0.000000 0.000000 0.000000 10.000000 
null_rope01_connect 0.000000 0.000000 0.000000 0.000000 0.000000 0.000000 10.000000 
Rope1_Seg01 0.000000 0.000000 0.000000 0.000000 0.000000 0.000000 10.000000 
Rope1_Seg02 0.000000 0.000000 0.000000 0.000000 0.000000 0.000000 10.000000 
Rope1_Seg03 0.000000 0.000000 0.000000 0.000000 0.000000 0.000000 10.000000 
Rope1_Seg04 0.000000 0.000000 0.000000 0.000000 0.000000 0.000000 10.000000 
Rope1_Seg05 0.000000 0.000000 0.000000 0.000000 0.000000 0.000000 10.000000 
Rope1_Seg06 0.000000 0.000000 0.000000 0.000000 0.000000 0.000000 10.000000 
Rope1_Seg07 0.000000 0.000000 0.000000 0.000000 0.000000 0.000000 10.000000 
Rope1_Seg09 0.000000 0.000000 0.000000 0.000000 0.000000 0.000000 10.000000 
L_mid_hand01 0.000000 0.000000 0.000000 0.000000 0.000000 0.000000 10.000000 
L_mid_hand02 0.000000 0.000000 0.000000 0.000000 0.000000 0.000000 10.000000 
L_mid_hand03 0.000000 0.000000 0.000000 0.000000 0.000000 0.000000 10.000000 
null_rope02_connect 0.000000 0.000000 0.000000 0.000000 0.000000 0.000000 10.000000 
Rope2_Seg01 0.000000 0.000000 0.000000 0.000000 0.000000 0.000000 10.000000 
Rope2_Seg02 0.000000 0.000000 0.000000 0.000000 0.000000 0.000000 10.000000 
Rope2_Seg03 0.000000 0.000000 0.000000 0.000000 0.000000 0.000000 10.000000 
Rope2_Seg04 0.000000 0.000000 0.000000 0.000000 0.000000 0.000000 10.000000 
Rope2_Seg05 0.000000 0.000000 0.000000 0.000000 0.000000 0.000000 10.000000 
Rope2_Seg06 0.000000 0.000000 0.000000 0.000000 0.000000 0.000000 10.000000 
Rope2_Seg07 0.000000 0.000000 0.000000 0.000000 0.000000 0.000000 10.000000 
Rope2_Seg09 0.000000 0.000000 0.000000 0.000000 0.000000 0.000000 10.000000 
R_mid_hand01 0.000000 0.000000 0.000000 0.000000 0.000000 0.000000 10.000000 
R_mid_hand02 0.000000 0.000000 0.000000 0.000000 0.000000 0.000000 10.000000 
R_mid_hand03 0.000000 0.000000 0.000000 0.000000 0.000000 0.000000 10.000000 
spine02 0.000000 0.000000 0.000000 0.000000 0.000000 0.000000 10.000000 
spine03 0.000000 0.000000 0.000000 0.000000 0.000000 0.000000 10.000000 
pelvis 0.000000 0.000000 0.000000 0.000000 0.000000 0.000000 10.000000 
null_rope03_connect 0.000000 0.000000 0.000000 0.000000 0.000000 0.000000 10.000000 
null_rope04_connect 0.000000 0.000000 0.000000 0.000000 0.000000 0.000000 10.000000 
Rope3_Seg01 0.000000 0.000000 0.000000 0.000000 0.000000 0.000000 10.000000 
Rope3_Seg02 0.000000 0.000000 0.000000 0.000000 0.000000 0.000000 10.000000 
Rope3_Seg03 0.000000 0.000000 0.000000 0.000000 0.000000 0.000000 10.000000 
Rope3_Seg04 0.000000 0.000000 0.000000 0.000000 0.000000 0.000000 10.000000 
Rope3_Seg05 0.000000 0.000000 0.000000 0.000000 0.000000 0.000000 10.000000 
Rope3_Seg06 0.000000 0.000000 0.000000 0.000000 0.000000 0.000000 10.000000 
Rope3_Seg07 0.000000 0.000000 0.000000 0.000000 0.000000 0.000000 10.000000 
Rope3_Seg08 0.000000 0.000000 0.000000 0.000000 0.000000 0.000000 10.000000 
Rope3_Seg09 0.000000 0.000000 0.000000 0.000000 0.000000 0.000000 10.000000 
R_rear_hand01 0.000000 0.000000 0.000000 0.000000 0.000000 0.000000 10.000000 
R_rear_hand02 0.000000 0.000000 0.000000 0.000000 0.000000 0.000000 10.000000 
R_rear_hand03 0.000000 0.000000 0.000000 0.000000 0.000000 0.000000 10.000000 
Rope4_Seg01 0.000000 0.000000 0.000000 0.000000 0.000000 0.000000 10.000000 
Rope4_Seg02 0.000000 0.000000 0.000000 0.000000 0.000000 0.000000 10.000000 
Rope4_Seg03 0.000000 0.000000 0.000000 0.000000 0.000000 0.000000 10.000000 
Rope4_Seg04 0.000000 0.000000 0.000000 0.000000 0.000000 0.000000 10.000000 
Rope4_Seg05 0.000000 0.000000 0.000000 0.000000 0.000000 0.000000 10.000000 
Rope4_Seg06 0.000000 0.000000 0.000000 0.000000 0.000000 0.000000 10.000000 
Rope4_Seg07 0.000000 0.000000 0.000000 0.000000 0.000000 0.000000 10.000000 
Rope4_Seg08 0.000000 0.000000 0.000000 0.000000 0.000000 0.000000 10.000000 
Rope4_Seg09 0.000000 0.000000 0.000000 0.000000 0.000000 0.000000 10.000000 
L_rear_hand01 0.000000 0.000000 0.000000 0.000000 0.000000 0.000000 10.000000 
L_rear_hand02 0.000000 0.000000 0.000000 0.000000 0.000000 0.000000 10.000000 
L_rear_hand03 0.000000 0.000000 0.000000 0.000000 0.000000 0.000000 10.000000 
#Beginning of Data. Separated by tabs
#Fr	Tx	Ty	Tz	Rx	Ry	Rz	SF
[MASTER]
37 0.000003 -0.000056 4797.338379 0.001660 0.001660 0.001660 4797.338379
38 0.000003 -0.000061 4797.174316 0.001660 0.001660 0.001660 4797.174316
[root]
37 -16.502296 -30.524557 1476.000732 -67.247078 -12.114172 -86.111031 1476.408691
38 -16.502296 -31.147953 1476.644897 -66.914291 -12.152617 -85.211594 1477.065552
[chest]
37 -84.512650 -34.090519 0.000000 -153.108185 1.866848 138.579483 91.129311
38 -84.512650 -34.090519 0.000000 -153.108200 1.866848 138.579483 91.129311
[L_mid_tent01]
37 27.299051 22.178984 -249.918671 -167.022537 41.908440 -71.675583 252.381638
38 27.299049 22.178980 -249.918671 -167.022537 41.908440 -71.675583 252.381638
[R_mid_tent01]
37 23.228794 24.509907 226.238495 -138.786179 -81.690498 26.823832 228.744751
38 23.228794 24.509907 226.238495 -138.786179 -81.690498 26.823832 228.744751
[spine01]
37 -0.361383 -0.195265 0.000000 0.002062 0.001122 32.879829 0.410763
38 -0.361383 -0.195265 0.000000 0.002062 0.001122 32.879829 0.410763
[Bip01_Neck]
37 165.484543 71.581718 0.000119 176.643677 -1.657967 43.431911 180.302734
38 165.484543 71.581718 0.000119 176.643677 -1.657967 43.431911 180.302734
[L_humerus]
37 -13.983130 -135.272980 -120.471481 156.317398 70.210068 -112.010254 181.680161
38 -13.983130 -135.272980 -120.471481 156.317398 70.210068 -112.010254 181.680161
[R_humerus]
37 -13.983309 -135.273102 125.287651 -172.382263 -66.903831 -92.553993 184.909012
38 -13.983309 -135.273102 125.287651 -172.382263 -66.903831 -92.553993 184.909012
[weapon_bone]
37 235.964890 -300.705902 0.000000 0.000000 -89.951546 -128.212341 382.234833
38 235.964890 -300.705902 0.000000 0.000000 -89.951546 -128.212341 382.234833
[Bip01_Head]
37 213.326965 186.042297 7.559289 26.909788 5.515155 -43.843071 283.155914
38 213.326965 186.042282 7.559297 26.030300 5.427185 -43.848282 283.155914
[eye_left_bone]
37 -24.626970 125.451866 -64.772606 0.000000 -90.000000 -99.840431 143.318359
38 -24.626970 125.451866 -64.772606 0.000000 -90.000000 -99.840431 143.318359
[eye_right_bone]
37 -24.626970 125.451866 64.327362 0.000000 -89.965736 80.156380 143.117676
38 -24.626970 125.451866 64.327362 0.000000 -89.965736 80.156380 143.117676
[L_forearm]
37 322.776093 0.000000 -0.000119 0.000119 -0.002344 -95.807457 322.776093
38 322.776093 0.000000 -0.000119 0.000119 -0.002344 -95.807457 322.776093
[L_front_hand]
37 241.149185 -0.042021 -3.300071 -178.667953 -1.835447 -27.422350 241.171753
38 241.149185 -0.042021 -3.300071 -178.667953 -1.835447 -27.422350 241.171753
[L_weapon_bone]
37 156.183838 0.000000 0.000000 0.000014 0.000007 0.000001 156.183838
38 156.183838 0.000000 0.000000 0.000014 0.000007 0.000001 156.183838
[L_front_hand01_01]
37 86.095154 20.947098 -0.655860 -0.366594 -0.477154 75.385574 88.609184
38 86.095154 20.947098 -0.655860 -0.366594 -0.477154 75.385574 88.609184
[L_front_hand02_01]
37 86.935165 -11.437475 24.513514 154.399796 -59.883835 -61.369587 91.046425
38 86.935165 -11.437475 24.513514 154.399796 -59.883835 -61.369587 91.046425
[L_front_hand03_01]
37 86.637497 -14.123976 -20.424902 -153.913849 58.118122 -62.702866 90.126129
38 86.637497 -14.123976 -20.424902 -153.913849 58.118122 -62.702866 90.126129
[L_front_hand01_02]
37 71.020905 -0.000179 0.000030 0.000334 -0.002323 -106.379684 71.020905
38 71.020905 -0.000179 0.000030 0.000334 -0.002323 -106.379684 71.020905
[L_front_hand02_02]
37 71.020927 -0.000119 0.000060 0.000334 -0.002323 -106.379684 71.020927
38 71.020927 -0.000119 0.000060 0.000334 -0.002323 -106.379684 71.020927
[L_front_hand03_02]
37 71.020905 -0.000060 0.000060 0.000334 -0.002323 -106.379684 71.020905
38 71.020905 -0.000060 0.000060 0.000334 -0.002323 -106.379684 71.020905
[R_forearm]
37 322.776428 -0.000060 0.000030 0.209504 0.012586 -94.339050 322.776428
38 322.776428 -0.000060 0.000030 0.209504 0.012586 -94.339050 322.776428
[R_front_hand]
37 238.847015 -0.006795 2.210259 -2.635298 -10.645461 -26.312506 238.857239
38 238.847015 -0.006795 2.210259 -2.635298 -10.645461 -26.312506 238.857239
[R_weapon_bone]
37 155.664093 0.002503 -0.000030 0.003487 0.001180 -90.988930 155.664078
38 155.664093 0.002503 -0.000030 0.003487 0.001180 -90.988930 155.664078
[R_front_hand01_01]
37 87.624611 14.231146 22.918642 -154.633499 -59.950619 61.746044 91.683487
38 87.624611 14.231146 22.918642 -154.633499 -59.950619 61.746044 91.683487
[R_front_hand02_01]
37 89.356956 14.367283 -19.491137 154.602661 58.302849 63.744389 92.579636
38 89.356956 14.367283 -19.491137 154.602661 58.302849 63.744381 92.579636
[R_front_hand03_01]
37 87.286232 -22.307278 -0.143439 0.162155 -0.423168 -75.767921 90.091743
38 87.286232 -22.307278 -0.143439 0.162155 -0.423168 -75.767921 90.091743
[R_front_hand01_02]
37 71.020905 0.000060 0.000119 0.002323 -0.000334 106.381714 71.020905
38 71.020905 0.000060 0.000119 0.002323 -0.000334 106.381714 71.020905
[R_front_hand02_02]
37 71.020844 -0.000030 -0.000119 0.002323 -0.000334 106.381714 71.020836
38 71.020844 -0.000030 -0.000119 0.002323 -0.000334 106.381714 71.020836
[R_front_hand03_02]
37 71.020905 0.000000 0.000030 0.002323 -0.000334 106.381714 71.020905
38 71.020905 0.000000 0.000030 0.002323 -0.000334 106.381714 71.020905
[null_rope01_connect]
37 328.732483 0.000000 -0.000238 -165.716812 22.829712 -162.131226 328.732483
38 328.732483 0.000000 -0.000238 -165.346893 22.272741 -161.210251 328.732483
[Rope1_Seg01]
37 0.000007 -0.000069 0.000499 -11.983594 -2.307701 -168.530411 0.000504
38 0.000006 -0.000070 0.000513 -11.418652 -1.994181 -167.570068 0.000518
[Rope1_Seg02]
37 139.999863 -0.000179 0.000000 -13.511472 -14.845176 -15.598985 139.999863
38 139.999863 -0.000179 0.000000 -13.934289 -14.975460 -15.473471 139.999863
[Rope1_Seg03]
37 139.999924 0.000060 -0.000060 -8.589651 -6.331710 -25.935972 139.999924
38 139.999924 0.000060 -0.000060 -8.906159 -6.354490 -25.931049 139.999924
[Rope1_Seg04]
37 139.999924 -0.000060 -0.000119 -5.038598 -28.051224 -24.169806 139.999924
38 139.999924 -0.000060 -0.000119 -5.432666 -27.939651 -24.301035 139.999924
[Rope1_Seg05]
37 139.999832 0.000119 -0.000060 -3.304474 -11.263530 -9.719868 139.999832
38 139.999832 0.000119 -0.000060 -3.387914 -11.149452 -9.850684 139.999832
[Rope1_Seg06]
37 139.999954 0.000119 -0.000060 -1.358560 -3.452504 -4.251526 139.999954
38 139.999954 0.000119 -0.000060 -1.372222 -3.397129 -4.294310 139.999954
[Rope1_Seg07]
37 139.999985 0.000060 0.000000 -0.747808 -1.891788 -2.452000 139.999985
38 139.999985 0.000060 0.000000 -0.751425 -1.859861 -2.474403 139.999985
[Rope1_Seg09]
37 121.602913 0.000119 -0.000089 -89.793175 -1.359789 0.847147 121.602913
38 121.602913 0.000119 -0.000089 -89.793175 -1.359789 0.847147 121.602913
[L_mid_hand01]
37 103.859421 1.038730 8.195221 130.544373 -67.584534 -38.866943 104.187431
38 103.859421 1.038730 8.195221 130.544373 -67.584534 -38.866943 104.187431
[L_mid_hand02]
37 105.572853 -4.139662 -10.864139 -168.923172 43.409309 -73.498886 106.211075
38 105.572853 -4.139662 -10.864139 -168.923172 43.409321 -73.498909 106.211075
[L_mid_hand03]
37 104.641464 17.579376 -3.913581 -6.012627 17.808178 74.893677 106.179977
38 104.641464 17.579376 -3.913581 -6.012627 17.808174 74.893669 106.179977
[null_rope02_connect]
37 328.732849 0.000179 -0.000119 -146.497299 -17.069559 -10.630304 328.732849
38 328.732849 0.000179 -0.000119 -146.678360 -17.877584 -9.972778 328.732849
[Rope2_Seg01]
37 -0.000111 0.000093 0.000000 82.609619 28.908823 17.987755 0.000145
38 -0.000116 0.000092 0.000000 83.213280 28.601822 18.885204 0.000148
[Rope2_Seg02]
37 139.999741 -0.000060 -0.000119 2.846449 2.241320 9.548895 139.999756
38 139.999741 -0.000060 -0.000119 2.758418 2.363477 9.520349 139.999756
[Rope2_Seg03]
37 140.000107 0.000030 0.000000 7.019992 5.340461 19.078901 140.000107
38 140.000107 0.000030 0.000000 6.789688 5.557639 19.020042 140.000107
[Rope2_Seg04]
37 139.999802 0.000000 -0.000060 15.404964 14.423193 34.225677 139.999802
38 139.999802 0.000000 -0.000060 14.861915 14.631792 34.144291 139.999802
[Rope2_Seg05]
37 139.999985 -0.000060 0.000119 7.518941 12.737105 21.178524 139.999985
38 139.999985 -0.000060 0.000119 7.167073 12.661605 21.217340 139.999985
[Rope2_Seg06]
37 139.999893 -0.000030 -0.000119 3.188772 5.147229 13.911700 139.999893
38 139.999893 -0.000030 -0.000119 3.010459 5.018081 13.958838 139.999893
[Rope2_Seg07]
37 139.999893 0.000060 -0.000060 2.811392 4.987884 11.898112 139.999893
38 139.999893 0.000060 -0.000060 2.694771 4.844265 11.965862 139.999893
[Rope2_Seg09]
37 121.338966 0.000089 -0.000060 33.793236 -1.359788 -0.847141 121.338966
38 121.338966 0.000089 -0.000060 33.793236 -1.359788 -0.847141 121.338966
[R_mid_hand01]
37 104.680779 11.144459 -10.335981 -16.212063 45.237247 70.462852 105.778534
38 104.680779 11.144459 -10.335981 -16.212063 45.237247 70.462852 105.778534
[R_mid_hand02]
37 104.070427 2.443552 8.231699 49.067368 -67.749771 39.286453 104.424065
38 104.070427 2.443552 8.231699 49.067368 -67.749771 39.286453 104.424065
[R_mid_hand03]
37 106.028137 -11.221827 -5.996406 -177.101105 15.551026 -76.585571 106.788818
38 106.028137 -11.221827 -5.996406 -177.101105 15.551026 -76.585571 106.788818
[spine02]
37 129.756927 0.001550 0.000119 -1.023899 -3.926965 6.770993 129.756927
38 129.756927 0.001550 0.000119 -1.023899 -3.926965 6.770993 129.756927
[spine03]
37 78.613998 0.081737 -4.898993 1.040681 4.146420 4.212376 78.766541
38 78.613991 0.081737 -4.898993 1.040681 4.146420 4.212376 78.766525
[pelvis]
37 169.435242 0.051022 0.000000 0.019518 -0.190233 -10.721436 169.435257
38 169.435242 0.051022 0.000000 0.019518 -0.190233 -10.721436 169.435257
[null_rope03_connect]
37 -1.257226 -2.466202 137.391083 21.197083 -66.399757 47.120529 137.418976
38 -1.257226 -2.466202 137.391083 22.941309 -65.736435 45.229740 137.418976
[null_rope04_connect]
37 -1.259640 -2.480268 -137.844437 21.197083 -66.399757 47.120529 137.872513
38 -1.259640 -2.480268 -137.844437 22.941309 -65.736435 45.229740 137.872513
[Rope3_Seg01]
37 0.000000 0.000000 0.000000 15.477803 -0.158134 -53.543163 0.000000
38 0.000000 0.000000 0.000000 15.146329 -1.226724 -54.191341 0.000000
[Rope3_Seg02]
37 139.999924 -0.000119 0.000060 -3.082659 -6.275941 3.376945 139.999924
38 139.999924 -0.000119 0.000060 -2.934209 -6.139333 3.459143 139.999924
[Rope3_Seg03]
37 139.999924 -0.000119 0.000119 -4.300425 -9.331799 4.450310 139.999924
38 139.999924 -0.000119 0.000119 -4.201164 -9.253372 4.672462 139.999924
[Rope3_Seg04]
37 139.999924 0.000119 0.000000 -5.922608 -14.179739 6.160505 139.999924
38 139.999924 0.000119 0.000000 -6.057346 -14.387751 6.719832 139.999924
[Rope3_Seg05]
37 139.999924 -0.000238 0.000060 -6.095689 -18.431419 7.452245 139.999924
38 139.999924 -0.000238 0.000060 -6.605158 -19.278028 8.460619 139.999924
[Rope3_Seg06]
37 139.999893 -0.000119 -0.000060 -1.461303 -14.385654 0.729504 139.999893
38 139.999893 -0.000119 -0.000060 -1.466849 -14.565201 0.722676 139.999893
[Rope3_Seg07]
37 139.999771 0.000060 -0.000119 1.216076 -12.984856 -4.802289 139.999771
38 139.999771 0.000060 -0.000119 1.222851 -12.015100 -5.355752 139.999771
[Rope3_Seg08]
37 139.999985 -0.000060 0.000000 2.449255 -11.726915 -2.766348 139.999985
38 139.999985 -0.000060 0.000000 2.260970 -10.843451 -2.911294 139.999985
[Rope3_Seg09]
37 90.185997 -0.000179 -0.000060 89.793228 -1.359877 -0.847183 90.185997
38 90.185997 -0.000179 -0.000060 89.793228 -1.359877 -0.847183 90.185997
[R_rear_hand01]
37 103.366196 -6.073594 -10.757982 -177.714203 24.565960 -73.910950 104.101845
38 103.366196 -6.073594 -10.757982 -177.714203 24.565960 -73.910950 104.101845
[R_rear_hand02]
37 100.509819 12.039542 -7.992327 -12.874829 36.868488 72.167213 101.543350
38 100.509819 12.039542 -7.992327 -12.874829 36.868488 72.167213 101.543350
[R_rear_hand03]
37 101.539970 5.215704 5.435467 71.484581 -71.816628 21.513813 101.819031
38 101.539970 5.215704 5.435467 71.484581 -71.816628 21.513813 101.819031
[Rope4_Seg01]
37 0.000010 0.000007 -0.000028 -98.061432 -8.130469 -107.471344 0.000030
38 0.000010 0.000006 -0.000024 -97.989700 -10.026552 -107.442398 0.000027
[Rope4_Seg02]
37 139.999985 0.000060 0.000119 0.179452 3.279351 -8.679814 139.999985
38 139.999985 0.000060 0.000119 0.094000 3.202562 -8.394386 139.999985
[Rope4_Seg03]
37 139.999924 0.000000 -0.000238 -0.098872 4.548983 -12.385463 139.999924
38 139.999924 0.000000 -0.000238 -0.167048 4.365572 -11.695373 139.999924
[Rope4_Seg04]
37 139.999985 0.000000 0.000119 -0.844797 6.906698 -17.463058 139.999985
38 139.999985 0.000000 0.000119 -0.804101 6.530080 -16.122599 139.999985
[Rope4_Seg05]
37 139.999802 -0.000060 -0.000119 -1.040744 6.586190 -16.863132 139.999802
38 139.999802 -0.000060 -0.000119 -0.993126 6.608490 -16.084873 139.999802
[Rope4_Seg06]
37 139.999924 0.000000 0.000060 -0.376049 1.300134 -9.643892 139.999924
38 139.999924 0.000000 0.000060 -0.370260 1.553371 -9.833547 139.999924
[Rope4_Seg07]
37 139.999802 0.000000 0.000000 -0.362980 -1.626482 -7.120322 139.999802
38 139.999802 0.000000 0.000000 -0.378977 -1.654353 -7.615678 139.999802
[Rope4_Seg08]
37 139.999924 0.000000 0.000119 -2.525008 0.155876 -6.936598 139.999924
38 139.999924 0.000000 0.000119 -2.589603 0.062864 -7.370847 139.999924
[Rope4_Seg09]
37 90.185791 0.000060 0.000060 -135.617828 2.228885 0.850567 90.185791
38 90.185791 0.000060 0.000060 -135.617828 2.228885 0.850567 90.185791
[L_rear_hand01]
37 101.696655 -8.392275 -7.654577 -12.874829 -36.868488 107.832764 102.329041
38 101.696655 -8.392275 -7.654577 -12.874829 -36.868488 107.832764 102.329041
[L_rear_hand02]
37 102.726799 -1.568258 5.773216 71.484581 71.816628 158.486160 102.900848
38 102.726799 -1.568258 5.773216 71.484581 71.816628 158.486160 102.900848
[L_rear_hand03]
37 104.552910 9.721220 -10.420293 -177.714203 -24.565960 -106.089035 105.519653
38 104.552910 9.721220 -10.420293 -177.714203 -24.565960 -106.089035 105.519653
